<svg xmlns="http://www.w3.org/2000/svg" width="1419" height="123" viewBox="0 0 1419 123">
  <path fill="#3987E2" fill-rule="evenodd" d="M68.88,16.72 L37.488,16.72 L37.488,58.336 L68.88,58.336 C74.8320298,58.336 78.8159899,56.8960144 80.832,54.016 C82.8480101,51.1359856 83.856,47.0560264 83.856,41.776 L83.856,31.696 C83.856,27.2799779 82.6320122,23.6800139 80.184,20.896 C77.7359878,18.1119861 73.9680254,16.72 68.88,16.72 Z M53.04,28.24 L63.84,28.24 C66.3360125,28.24 68.0159957,28.8879935 68.88,30.184 C69.7440043,31.4800065 70.176,33.0879904 70.176,35.008 L70.176,39.904 C70.176,41.8240096 69.7440043,43.4319935 68.88,44.728 C68.0159957,46.0240065 66.3360125,46.672 63.84,46.672 L53.04,46.672 L53.04,28.24 Z M37.488,93.04 L36.048,93.04 L36.048,15.28 L68.88,15.28 C74.4480278,15.28 78.5759866,16.8399844 81.264,19.96 C83.9520134,23.0800156 85.296,26.9919765 85.296,31.696 L85.296,41.632 C85.296,46.0480221 84.7200058,49.6719858 83.568,52.504 C82.4159942,55.3360142 80.1120173,57.2799947 76.656,58.336 L78.24,58.336 C84.0960293,58.336 88.4639856,59.6559868 91.344,62.296 C94.2240144,64.9360132 95.664,68.751975 95.664,73.744 L95.664,93.04 L94.224,93.04 L94.224,73.744 C94.224,69.0399765 92.928013,65.5120118 90.336,63.16 C87.743987,60.8079882 83.7120274,59.632 78.24,59.632 L37.488,59.632 L37.488,93.04 Z M47.856,106 C49.6800091,106 50.9999959,105.592004 51.816,104.776 C52.6320041,103.959996 53.04,102.640009 53.04,100.816 L53.04,72.592 L73.2,72.592 C75.2160101,72.592 76.6319959,73.095995 77.448,74.104 C78.2640041,75.112005 78.672,76.6719894 78.672,78.784 L78.672,100.816 C78.672,102.640009 79.0799959,103.959996 79.896,104.776 C80.7120041,105.592004 82.0319909,106 83.856,106 L106.176,106 C108.000009,106 109.319996,105.592004 110.136,104.776 C110.952004,103.959996 111.36,102.640009 111.36,100.816 L111.36,70.288 C111.36,64.2399698 109.752016,59.3920182 106.536,55.744 C103.319984,52.0959818 99.1200259,49.9840029 93.936,49.408 C96.9120149,48.1599938 98.999994,46.1200142 100.2,43.288 C101.400006,40.4559858 102,37.0240202 102,32.992 L102,26.368 C102,19.2639645 99.9600204,13.4800223 95.88,9.016 C91.7999796,4.55197768 84.3840538,2.32 73.632,2.32 L25.68,2.32 C23.8559909,2.32 22.5360041,2.72799592 21.72,3.544 C20.9039959,4.36000408 20.496,5.67999088 20.496,7.504 L20.496,100.816 C20.496,102.640009 20.9039959,103.959996 21.72,104.776 C22.5360041,105.592004 23.8559909,106 25.68,106 L47.856,106 Z M52.464,106.144 L33.744,121.696 C33.3599981,122.080002 32.7600041,122.415999 31.944,122.704 C31.1279959,122.992001 30.2400048,123.136 29.28,123.136 L7.104,123.136 C4.79998848,123.136 3.12000528,122.608005 2.064,121.552 C1.00799472,120.495995 0.48,118.816012 0.48,116.512 L0.48,23.2 C0.48,21.9519938 0.64799832,20.8960043 0.984,20.032 C1.32000168,19.1679957 1.82399664,18.4480029 2.496,17.872 L21.072,2.176 C21.5520024,1.79199808 22.1999959,1.4800012 23.016,1.24 C23.8320041,0.9999988 24.7199952,0.88 25.68,0.88 L73.632,0.88 C85.0560571,0.88 92.8799789,3.25597624 97.104,8.008 C101.328021,12.7600238 103.44,18.8799626 103.44,26.368 L103.44,32.992 C103.44,36.5440178 103.008004,39.6399868 102.144,42.28 C101.279996,44.9200132 99.8880096,47.0559918 97.968,48.688 L97.824,48.688 C102.336023,49.9360062 105.959986,52.4319813 108.696,56.176 C111.432014,59.9200187 112.8,64.6239717 112.8,70.288 L112.8,100.816 C112.8,102.064006 112.632002,103.119996 112.296,103.984 C111.959998,104.848004 111.456003,105.567997 110.784,106.144 L92.064,121.696 C91.6799981,122.080002 91.0800041,122.415999 90.264,122.704 C89.4479959,122.992001 88.5600048,123.136 87.6,123.136 L65.28,123.136 C62.9759885,123.136 61.2960053,122.608005 60.24,121.552 C59.1839947,120.495995 58.656,118.816012 58.656,116.512 L58.656,94.48 C58.656,92.9439923 58.3680029,91.7680041 57.792,90.952 C57.2159971,90.1359959 56.1600077,89.728 54.624,89.728 L54.48,89.728 L54.48,100.816 C54.48,102.064006 54.3120017,103.119996 53.976,103.984 C53.6399983,104.848004 53.1360034,105.567997 52.464,106.144 Z M195.312,123.136 L128.496,123.136 C126.191988,123.136 124.512005,122.608005 123.456,121.552 C122.399995,120.495995 121.872,118.816012 121.872,116.512 L121.872,23.2 C121.872,21.9519938 122.039998,20.8960043 122.376,20.032 C122.712002,19.1679957 123.215997,18.4480029 123.888,17.872 L142.464,2.176 C142.944002,1.79199808 143.591996,1.4800012 144.408,1.24 C145.224004,0.9999988 146.111995,0.88 147.072,0.88 L213.888,0.88 C216.192012,0.88 217.871995,1.40799472 218.928,2.464 C219.984005,3.52000528 220.512,5.19998848 220.512,7.504 L220.512,24.352 C220.512,25.6000062 220.344002,26.6559957 220.008,27.52 C219.671998,28.3840043 219.168003,29.1039971 218.496,29.68 L206.112,39.904 C207.072005,40.3840024 207.767998,41.1039952 208.2,42.064 C208.632002,43.0240048 208.848,44.2719923 208.848,45.808 L208.848,61.216 C208.848,62.4640062 208.680002,63.5199957 208.344,64.384 C208.007998,65.2480043 207.504003,65.9679971 206.832,66.544 L194.016,77.344 L213.888,77.344 C216.192012,77.344 217.871995,77.8719947 218.928,78.928 C219.984005,79.9840053 220.512,81.6639885 220.512,83.968 L220.512,100.816 C220.512,102.064006 220.344002,103.119996 220.008,103.984 C219.671998,104.848004 219.168003,105.567997 218.496,106.144 L199.776,121.696 C199.391998,122.080002 198.792004,122.415999 197.976,122.704 C197.159996,122.992001 196.272005,123.136 195.312,123.136 Z M213.888,106 C215.712009,106 217.031996,105.592004 217.848,104.776 C218.664004,103.959996 219.072,102.640009 219.072,100.816 L219.072,83.968 C219.072,82.1439909 218.664004,80.8240041 217.848,80.008 C217.031996,79.1919959 215.712009,78.784 213.888,78.784 L174.144,78.784 L174.144,66.4 L202.224,66.4 C204.048009,66.4 205.367996,65.9920041 206.184,65.176 C207.000004,64.3599959 207.408,63.0400091 207.408,61.216 L207.408,45.808 C207.408,43.9839909 207.000004,42.6640041 206.184,41.848 C205.367996,41.0319959 204.048009,40.624 202.224,40.624 L174.144,40.624 L174.144,29.536 L213.888,29.536 C215.712009,29.536 217.031996,29.1280041 217.848,28.312 C218.664004,27.4959959 219.072,26.1760091 219.072,24.352 L219.072,7.504 C219.072,5.67999088 218.664004,4.36000408 217.848,3.544 C217.031996,2.72799592 215.712009,2.32 213.888,2.32 L147.072,2.32 C145.247991,2.32 143.928004,2.72799592 143.112,3.544 C142.295996,4.36000408 141.888,5.67999088 141.888,7.504 L141.888,100.816 C141.888,102.640009 142.295996,103.959996 143.112,104.776 C143.928004,105.592004 145.247991,106 147.072,106 L213.888,106 Z M206.112,91.6 L206.112,93.04 L157.584,93.04 L157.584,15.28 L206.112,15.28 L206.112,16.72 L159.024,16.72 L159.024,52.864 L194.448,52.864 L194.448,54.304 L159.024,54.304 L159.024,91.6 L206.112,91.6 Z M265.008,62.368 L265.008,66.832 L321.168,66.832 L321.168,62.368 C321.168,59.775987 320.952002,57.376011 320.52,55.168 C320.087998,52.959989 319.536003,50.8960096 318.864,48.976 L308.928,25.504 C307.871995,23.0079875 306.768006,20.9200084 305.616,19.24 C304.463994,17.5599916 302.544013,16.72 299.856,16.72 L285.744,16.72 C282.863986,16.72 280.848006,17.5599916 279.696,19.24 C278.543994,20.9200084 277.488005,22.959988 276.528,25.36 L267.312,48.976 C266.639997,50.8960096 266.088002,52.959989 265.656,55.168 C265.223998,57.376011 265.008,59.775987 265.008,62.368 Z M288.048,32.56 C288.432002,31.6959957 288.839998,31.0720019 289.272,30.688 C289.704002,30.3039981 290.207997,30.112 290.784,30.112 L294.384,30.112 C294.960003,30.112 295.463998,30.3039981 295.896,30.688 C296.328002,31.0720019 296.735998,31.6959957 297.12,32.56 L303.888,54.448 L281.28,54.448 L288.048,32.56 Z M321.168,93.04 L321.168,68.272 L265.008,68.272 L265.008,93.04 L263.568,93.04 L263.568,62.368 C263.568,59.6799866 263.783998,57.2080113 264.216,54.952 C264.648002,52.6959887 265.247996,50.5120106 266.016,48.4 L275.232,24.784 C276.288005,22.0959866 277.487993,19.8400091 278.832,18.016 C280.176007,16.1919909 282.479984,15.28 285.744,15.28 L299.856,15.28 C303.024016,15.28 305.255994,16.1919909 306.552,18.016 C307.848006,19.8400091 309.071994,22.1439861 310.224,24.928 L320.16,48.4 C320.928004,50.5120106 321.527998,52.6959887 321.96,54.952 C322.392002,57.2080113 322.608,59.6799866 322.608,62.368 L322.608,93.04 L321.168,93.04 Z M279.84,100.816 L279.84,80.656 L305.328,80.656 L305.328,100.816 C305.328,102.640009 305.783995,103.959996 306.696,104.776 C307.608005,105.592004 309.02399,106 310.944,106 L332.688,106 C334.512009,106 335.831996,105.592004 336.648,104.776 C337.464004,103.959996 337.872,102.640009 337.872,100.816 L337.872,62.8 C337.872,59.9199856 337.416005,56.6080187 336.504,52.864 C335.591995,49.1199813 334.17601,44.752025 332.256,39.76 L319.728,7.072 C319.151997,5.43999184 318.264006,4.24000384 317.064,3.472 C315.863994,2.70399616 314.352009,2.32 312.528,2.32 L273.792,2.32 C271.87199,2.32 270.312006,2.70399616 269.112,3.472 C267.911994,4.24000384 267.024003,5.43999184 266.448,7.072 L253.92,39.76 C251.99999,44.752025 250.584005,49.1199813 249.672,52.864 C248.759995,56.6080187 248.304,59.9199856 248.304,62.8 L248.304,100.816 C248.304,102.640009 248.711996,103.959996 249.528,104.776 C250.344004,105.592004 251.663991,106 253.488,106 L274.656,106 C276.480009,106 277.799996,105.592004 278.616,104.776 C279.432004,103.959996 279.84,102.640009 279.84,100.816 Z M260.544,121.696 C260.159998,122.080002 259.560004,122.415999 258.744,122.704 C257.927996,122.992001 257.040005,123.136 256.08,123.136 L234.912,123.136 C232.607988,123.136 230.928005,122.608005 229.872,121.552 C228.815995,120.495995 228.288,118.816012 228.288,116.512 L228.288,78.496 C228.288,75.5199851 228.743995,72.136019 229.656,68.344 C230.568005,64.551981 232.03199,60.0640259 234.048,54.88 L246.432,22.336 C246.720001,21.4719957 247.079998,20.7280031 247.512,20.104 C247.944002,19.4799969 248.399998,18.9280024 248.88,18.448 L249.024,18.304 L267.456,2.896 C268.224004,2.22399664 269.135995,1.72000168 270.192,1.384 C271.248005,1.04799832 272.447993,0.88 273.792,0.88 L312.528,0.88 C314.736011,0.88 316.535993,1.33599544 317.928,2.248 C319.320007,3.16000456 320.351997,4.5759904 321.024,6.496 L333.552,39.184 C335.56801,44.3680259 337.031995,48.855981 337.944,52.648 C338.856005,56.440019 339.312,59.8239851 339.312,62.8 L339.312,100.816 C339.312,102.064006 339.144002,103.119996 338.808,103.984 C338.471998,104.848004 337.968003,105.567997 337.296,106.144 L318.576,121.696 C318.191998,122.080002 317.592004,122.415999 316.776,122.704 C315.959996,122.992001 315.072005,123.136 314.112,123.136 L292.368,123.136 C289.967988,123.136 288.192006,122.584006 287.04,121.48 C285.887994,120.375994 285.312,118.720011 285.312,116.512 L285.312,97.792 L281.28,97.792 L281.28,100.816 C281.28,102.064006 281.112002,103.119996 280.776,103.984 C280.439998,104.848004 279.936003,105.567997 279.264,106.144 L260.544,121.696 Z M420.384,123.136 L385.248,123.136 C372.671937,123.136 363.38403,119.872033 357.384,113.344 C351.38397,106.815967 348.384,98.3680518 348.384,88 L348.384,47.536 C348.384,42.2559736 349.151992,37.6720194 350.688,33.784 C352.224008,29.8959806 354.479985,26.656013 357.456,24.064 L376.176,8.368 C379.152015,5.87198752 382.943977,4.00000624 387.552,2.752 C392.160023,1.50399376 397.583969,0.88 403.824,0.88 L438.96,0.88 C441.264012,0.88 442.943995,1.40799472 444,2.464 C445.056005,3.52000528 445.584,5.19998848 445.584,7.504 L445.584,24.928 C445.584,26.1760062 445.416002,27.2319957 445.08,28.096 C444.743998,28.9600043 444.240003,29.6799971 443.568,30.256 L424.848,45.808 C424.463998,46.1920019 423.864004,46.5279986 423.048,46.816 C422.231996,47.1040014 421.344005,47.248 420.384,47.248 L402.672,47.248 L402.672,71.584 C402.672,73.6000101 403.295994,75.0159959 404.544,75.832 C405.792006,76.6480041 407.615988,77.056 410.016,77.056 L438.96,77.056 C441.264012,77.056 442.943995,77.5839947 444,78.64 C445.056005,79.6960053 445.584,81.3759885 445.584,83.68 L445.584,100.816 C445.584,102.064006 445.416002,103.119996 445.08,103.984 C444.743998,104.848004 444.240003,105.567997 443.568,106.144 L424.848,121.696 C424.463998,122.080002 423.864004,122.415999 423.048,122.704 C422.231996,122.992001 421.344005,123.136 420.384,123.136 Z M438.96,106 C440.784009,106 442.103996,105.592004 442.92,104.776 C443.736004,103.959996 444.144,102.640009 444.144,100.816 L444.144,83.68 C444.144,81.8559909 443.736004,80.5360041 442.92,79.72 C442.103996,78.9039959 440.784009,78.496 438.96,78.496 L410.016,78.496 C407.039985,78.496 404.832007,77.9440055 403.392,76.84 C401.951993,75.7359945 401.232,73.984012 401.232,71.584 L401.232,37.312 C401.232,34.911988 401.951993,33.112006 403.392,31.912 C404.832007,30.711994 407.039985,30.112 410.016,30.112 L438.96,30.112 C440.784009,30.112 442.103996,29.7040041 442.92,28.888 C443.736004,28.0719959 444.144,26.7520091 444.144,24.928 L444.144,7.504 C444.144,5.67999088 443.736004,4.36000408 442.92,3.544 C442.103996,2.72799592 440.784009,2.32 438.96,2.32 L403.824,2.32 C391.82394,2.32 382.920029,4.74397576 377.112,9.592 C371.303971,14.4400242 368.4,21.8559501 368.4,31.84 L368.4,76.624 C368.4,86.6080499 371.303971,93.999976 377.112,98.8 C382.920029,103.600024 391.82394,106 403.824,106 L438.96,106 Z M431.04,91.6 L431.04,93.04 L406.992,93.04 C397.679953,93.04 391.512015,91.6000144 388.488,88.72 C385.463985,85.8399856 383.952,81.0880331 383.952,74.464 L383.952,34.144 C383.952,27.3279659 385.487985,22.4800144 388.56,19.6 C391.632015,16.7199856 397.775954,15.28 406.992,15.28 L431.04,15.28 L431.04,16.72 L406.992,16.72 C398.543958,16.72 392.832015,18.0399868 389.856,20.68 C386.879985,23.3200132 385.392,27.8079683 385.392,34.144 L385.392,74.464 C385.392,80.7040312 386.831986,85.119987 389.712,87.712 C392.592014,90.304013 398.351957,91.6 406.992,91.6 L431.04,91.6 Z M505.2,123.136 L481.872,123.136 C479.567988,123.136 477.888005,122.608005 476.832,121.552 C475.775995,120.495995 475.248,118.816012 475.248,116.512 L475.248,47.248 L455.52,47.248 C453.215988,47.248 451.536005,46.7200053 450.48,45.664 C449.423995,44.6079947 448.896,42.9280115 448.896,40.624 L448.896,23.2 C448.896,21.9519938 449.063998,20.8960043 449.4,20.032 C449.736002,19.1679957 450.239997,18.4480029 450.912,17.872 L469.488,2.176 C469.968002,1.79199808 470.615996,1.4800012 471.432,1.24 C472.248004,0.9999988 473.135995,0.88 474.096,0.88 L550.128,0.88 C552.432012,0.88 554.111995,1.40799472 555.168,2.464 C556.224005,3.52000528 556.752,5.19998848 556.752,7.504 L556.752,24.928 C556.752,26.1760062 556.584002,27.2319957 556.248,28.096 C555.911998,28.9600043 555.408003,29.6799971 554.736,30.256 L536.016,45.808 C535.631998,46.1920019 535.032004,46.5279986 534.216,46.816 C533.399996,47.1040014 532.512005,47.248 531.552,47.248 L530.4,47.248 L530.4,100.816 C530.4,102.064006 530.232002,103.119996 529.896,103.984 C529.559998,104.848004 529.056003,105.567997 528.384,106.144 L509.664,121.696 C509.279998,122.080002 508.680004,122.415999 507.864,122.704 C507.047996,122.992001 506.160005,123.136 505.2,123.136 Z M523.776,106 C525.600009,106 526.919996,105.592004 527.736,104.776 C528.552004,103.959996 528.96,102.640009 528.96,100.816 L528.96,30.112 L550.128,30.112 C551.952009,30.112 553.271996,29.7040041 554.088,28.888 C554.904004,28.0719959 555.312,26.7520091 555.312,24.928 L555.312,7.504 C555.312,5.67999088 554.904004,4.36000408 554.088,3.544 C553.271996,2.72799592 551.952009,2.32 550.128,2.32 L474.096,2.32 C472.271991,2.32 470.952004,2.72799592 470.136,3.544 C469.319996,4.36000408 468.912,5.67999088 468.912,7.504 L468.912,24.928 C468.912,26.7520091 469.319996,28.0719959 470.136,28.888 C470.952004,29.7040041 472.271991,30.112 474.096,30.112 L495.264,30.112 L495.264,100.816 C495.264,102.640009 495.671996,103.959996 496.488,104.776 C497.304004,105.592004 498.623991,106 500.448,106 L523.776,106 Z M511.392,93.04 L511.392,16.72 L481.872,16.72 L481.872,15.28 L542.352,15.28 L542.352,16.72 L512.832,16.72 L512.832,93.04 L511.392,93.04 Z M680.88,56.32 C682.416008,56.32 683.639995,56.7759954 684.552,57.688 C685.464005,58.6000046 686.591993,60.3999866 687.936,63.088 L701.184,89.584 C701.664002,90.5440048 702.263996,91.119999 702.984,91.312 C703.704004,91.504001 704.399997,91.6 705.072,91.6 L705.792,91.6 C706.560004,91.6 707.279997,91.2880031 707.952,90.664 C708.624003,90.0399969 709.008,89.3440038 709.104,88.576 L712.704,72.16 C713.088002,70.3359909 713.304,67.9840144 713.352,65.104 C713.4,62.2239856 713.424,59.7280106 713.424,57.616 L713.424,15.28 L714.864,15.28 L714.864,57.76 C714.864,59.8720106 714.84,62.3679856 714.792,65.248 C714.744,68.1280144 714.528002,70.4799909 714.144,72.304 L710.544,88.576 C710.159998,90.1120077 709.560004,91.2399964 708.744,91.96 C707.927996,92.6800036 706.944006,93.04 705.792,93.04 L704.784,93.04 C703.919996,93.04 703.032005,92.8720017 702.12,92.536 C701.207995,92.1999983 700.512002,91.5520048 700.032,90.592 L686.784,63.808 C685.535994,61.3119875 684.528004,59.6800038 683.76,58.912 C682.991996,58.1439962 682.032006,57.76 680.88,57.76 L677.28,57.76 C676.127994,57.76 675.168004,58.1439962 674.4,58.912 C673.631996,59.6800038 672.624006,61.3119875 671.376,63.808 L658.128,90.592 C657.647998,91.5520048 656.952005,92.1999983 656.04,92.536 C655.127995,92.8720017 654.240004,93.04 653.376,93.04 L652.368,93.04 C651.215994,93.04 650.232004,92.6800036 649.416,91.96 C648.599996,91.2399964 648.000002,90.1120077 647.616,88.576 L644.016,72.304 C643.631998,70.4799909 643.416,68.1280144 643.368,65.248 C643.32,62.3679856 643.296,59.8720106 643.296,57.76 L643.296,15.28 L644.736,15.28 L644.736,57.616 C644.736,59.7280106 644.76,62.2239856 644.808,65.104 C644.856,67.9840144 645.071998,70.3359909 645.456,72.16 L649.056,88.576 C649.152,89.3440038 649.535997,90.0399969 650.208,90.664 C650.880003,91.2880031 651.599996,91.6 652.368,91.6 L653.088,91.6 C653.760003,91.6 654.455996,91.504001 655.176,91.312 C655.896004,91.119999 656.495998,90.5440048 656.976,89.584 L670.224,63.088 C671.568007,60.3999866 672.695995,58.6000046 673.608,57.688 C674.520005,56.7759954 675.743992,56.32 677.28,56.32 L680.88,56.32 Z M703.488,2.32 C701.663991,2.32 700.344004,2.72799592 699.528,3.544 C698.711996,4.36000408 698.304,5.67999088 698.304,7.504 L698.304,60.496 L689.952,42.352 C689.183996,40.7199918 688.176006,39.5680034 686.928,38.896 C685.679994,38.2239966 684.144009,37.888 682.32,37.888 L676.272,37.888 C674.447991,37.888 672.912006,38.2239966 671.664,38.896 C670.415994,39.5680034 669.408004,40.7199918 668.64,42.352 L660.288,60.496 L660.288,7.504 C660.288,5.67999088 659.880004,4.36000408 659.064,3.544 C658.247996,2.72799592 656.928009,2.32 655.104,2.32 L632.928,2.32 C631.103991,2.32 629.784004,2.72799592 628.968,3.544 C628.151996,4.36000408 627.744,5.67999088 627.744,7.504 L627.744,63.088 C627.744,66.1600154 627.863999,69.0159868 628.104,71.656 C628.344001,74.2960132 629.087994,77.3919822 630.336,80.944 L637.536,100.816 C638.016002,102.352008 638.807994,103.599995 639.912,104.56 C641.016006,105.520005 642.335992,106 643.872,106 L662.88,106 C664.416008,106 665.711995,105.640004 666.768,104.92 C667.824005,104.199996 668.543998,103.120007 668.928,101.68 L675.696,78.208 C675.984001,77.2479952 676.343998,76.6000017 676.776,76.264 C677.208002,75.9279983 677.711997,75.76 678.288,75.76 L679.584,75.76 C680.160003,75.76 680.663998,75.9279983 681.096,76.264 C681.528002,76.6000017 681.887999,77.2479952 682.176,78.208 L688.8,101.68 C689.184002,103.216008 689.999994,104.319997 691.248,104.992 C692.496006,105.664003 693.887992,106 695.424,106 L714.576,106 C716.112008,106 717.335995,105.496005 718.248,104.488 C719.160005,103.479995 719.855998,102.256007 720.336,100.816 L727.536,81.232 C728.784006,77.6799822 729.527999,74.5840132 729.768,71.944 C730.008001,69.3039868 730.128,66.4480154 730.128,63.376 L730.128,7.504 C730.128,5.67999088 729.720004,4.36000408 728.904,3.544 C728.087996,2.72799592 726.768009,2.32 724.944,2.32 L703.488,2.32 Z M649.344,121.408 C648.671997,121.888002 647.904004,122.295998 647.04,122.632 C646.175996,122.968002 645.264005,123.136 644.304,123.136 L625.296,123.136 C623.471991,123.136 621.888007,122.560006 620.544,121.408 C619.199993,120.255994 618.240003,118.768009 617.664,116.944 L610.464,97.072 C609.119993,93.5199822 608.328001,90.3760137 608.088,87.64 C607.847999,84.9039863 607.728,81.9520158 607.728,78.784 L607.728,23.2 C607.728,21.9519938 607.895998,20.8960043 608.232,20.032 C608.568002,19.1679957 609.071997,18.4480029 609.744,17.872 L628.32,2.176 C628.800002,1.79199808 629.447996,1.4800012 630.264,1.24 C631.080004,0.9999988 631.967995,0.88 632.928,0.88 L655.104,0.88 C657.408012,0.88 659.087995,1.40799472 660.144,2.464 C661.200005,3.52000528 661.728,5.19998848 661.728,7.504 L661.728,45.088 L669.792,38.32 C670.560004,37.6479966 671.495994,37.1680014 672.6,36.88 C673.704006,36.5919986 674.927993,36.448 676.272,36.448 L678.288,36.448 L678.288,23.2 C678.288,21.9519938 678.431999,20.8960043 678.72,20.032 C679.008001,19.1679957 679.439997,18.4960024 680.016,18.016 L680.16,17.872 L698.88,2.176 C699.360002,1.79199808 699.983996,1.4800012 700.752,1.24 C701.520004,0.9999988 702.431995,0.88 703.488,0.88 L724.944,0.88 C727.248012,0.88 728.927995,1.40799472 729.984,2.464 C731.040005,3.52000528 731.568,5.19998848 731.568,7.504 L731.568,63.376 C731.568,66.5440158 731.448001,69.4959863 731.208,72.232 C730.967999,74.9680137 730.176007,78.1119822 728.832,81.664 L721.632,101.248 C721.343999,102.208005 720.960002,103.071996 720.48,103.84 C719.999998,104.608004 719.424003,105.327997 718.752,106 L700.176,121.408 C699.599997,121.984003 698.976003,122.415999 698.304,122.704 C697.631997,122.992001 696.864004,123.136 696,123.136 L676.848,123.136 C674.92799,123.136 673.248007,122.704004 671.808,121.84 C670.367993,120.975996 669.360003,119.632009 668.784,117.808 L665.904,107.584 L649.344,121.408 Z M816.528,123.136 L749.712,123.136 C747.407988,123.136 745.728005,122.608005 744.672,121.552 C743.615995,120.495995 743.088,118.816012 743.088,116.512 L743.088,23.2 C743.088,21.9519938 743.255998,20.8960043 743.592,20.032 C743.928002,19.1679957 744.431997,18.4480029 745.104,17.872 L763.68,2.176 C764.160002,1.79199808 764.807996,1.4800012 765.624,1.24 C766.440004,0.9999988 767.327995,0.88 768.288,0.88 L835.104,0.88 C837.408012,0.88 839.087995,1.40799472 840.144,2.464 C841.200005,3.52000528 841.728,5.19998848 841.728,7.504 L841.728,24.352 C841.728,25.6000062 841.560002,26.6559957 841.224,27.52 C840.887998,28.3840043 840.384003,29.1039971 839.712,29.68 L827.328,39.904 C828.288005,40.3840024 828.983998,41.1039952 829.416,42.064 C829.848002,43.0240048 830.064,44.2719923 830.064,45.808 L830.064,61.216 C830.064,62.4640062 829.896002,63.5199957 829.56,64.384 C829.223998,65.2480043 828.720003,65.9679971 828.048,66.544 L815.232,77.344 L835.104,77.344 C837.408012,77.344 839.087995,77.8719947 840.144,78.928 C841.200005,79.9840053 841.728,81.6639885 841.728,83.968 L841.728,100.816 C841.728,102.064006 841.560002,103.119996 841.224,103.984 C840.887998,104.848004 840.384003,105.567997 839.712,106.144 L820.992,121.696 C820.607998,122.080002 820.008004,122.415999 819.192,122.704 C818.375996,122.992001 817.488005,123.136 816.528,123.136 Z M835.104,106 C836.928009,106 838.247996,105.592004 839.064,104.776 C839.880004,103.959996 840.288,102.640009 840.288,100.816 L840.288,83.968 C840.288,82.1439909 839.880004,80.8240041 839.064,80.008 C838.247996,79.1919959 836.928009,78.784 835.104,78.784 L795.36,78.784 L795.36,66.4 L823.44,66.4 C825.264009,66.4 826.583996,65.9920041 827.4,65.176 C828.216004,64.3599959 828.624,63.0400091 828.624,61.216 L828.624,45.808 C828.624,43.9839909 828.216004,42.6640041 827.4,41.848 C826.583996,41.0319959 825.264009,40.624 823.44,40.624 L795.36,40.624 L795.36,29.536 L835.104,29.536 C836.928009,29.536 838.247996,29.1280041 839.064,28.312 C839.880004,27.4959959 840.288,26.1760091 840.288,24.352 L840.288,7.504 C840.288,5.67999088 839.880004,4.36000408 839.064,3.544 C838.247996,2.72799592 836.928009,2.32 835.104,2.32 L768.288,2.32 C766.463991,2.32 765.144004,2.72799592 764.328,3.544 C763.511996,4.36000408 763.104,5.67999088 763.104,7.504 L763.104,100.816 C763.104,102.640009 763.511996,103.959996 764.328,104.776 C765.144004,105.592004 766.463991,106 768.288,106 L835.104,106 Z M827.328,91.6 L827.328,93.04 L778.8,93.04 L778.8,15.28 L827.328,15.28 L827.328,16.72 L780.24,16.72 L780.24,52.864 L815.664,52.864 L815.664,54.304 L780.24,54.304 L780.24,91.6 L827.328,91.6 Z M886.224,62.368 L886.224,66.832 L942.384,66.832 L942.384,62.368 C942.384,59.775987 942.168002,57.376011 941.736,55.168 C941.303998,52.959989 940.752003,50.8960096 940.08,48.976 L930.144,25.504 C929.087995,23.0079875 927.984006,20.9200084 926.832,19.24 C925.679994,17.5599916 923.760013,16.72 921.072,16.72 L906.96,16.72 C904.079986,16.72 902.064006,17.5599916 900.912,19.24 C899.759994,20.9200084 898.704005,22.959988 897.744,25.36 L888.528,48.976 C887.855997,50.8960096 887.304002,52.959989 886.872,55.168 C886.439998,57.376011 886.224,59.775987 886.224,62.368 Z M909.264,32.56 C909.648002,31.6959957 910.055998,31.0720019 910.488,30.688 C910.920002,30.3039981 911.423997,30.112 912,30.112 L915.6,30.112 C916.176003,30.112 916.679998,30.3039981 917.112,30.688 C917.544002,31.0720019 917.951998,31.6959957 918.336,32.56 L925.104,54.448 L902.496,54.448 L909.264,32.56 Z M942.384,93.04 L942.384,68.272 L886.224,68.272 L886.224,93.04 L884.784,93.04 L884.784,62.368 C884.784,59.6799866 884.999998,57.2080113 885.432,54.952 C885.864002,52.6959887 886.463996,50.5120106 887.232,48.4 L896.448,24.784 C897.504005,22.0959866 898.703993,19.8400091 900.048,18.016 C901.392007,16.1919909 903.695984,15.28 906.96,15.28 L921.072,15.28 C924.240016,15.28 926.471994,16.1919909 927.768,18.016 C929.064006,19.8400091 930.287994,22.1439861 931.44,24.928 L941.376,48.4 C942.144004,50.5120106 942.743998,52.6959887 943.176,54.952 C943.608002,57.2080113 943.824,59.6799866 943.824,62.368 L943.824,93.04 L942.384,93.04 Z M901.056,100.816 L901.056,80.656 L926.544,80.656 L926.544,100.816 C926.544,102.640009 926.999995,103.959996 927.912,104.776 C928.824005,105.592004 930.23999,106 932.16,106 L953.904,106 C955.728009,106 957.047996,105.592004 957.864,104.776 C958.680004,103.959996 959.088,102.640009 959.088,100.816 L959.088,62.8 C959.088,59.9199856 958.632005,56.6080187 957.72,52.864 C956.807995,49.1199813 955.39201,44.752025 953.472,39.76 L940.944,7.072 C940.367997,5.43999184 939.480006,4.24000384 938.28,3.472 C937.079994,2.70399616 935.568009,2.32 933.744,2.32 L895.008,2.32 C893.08799,2.32 891.528006,2.70399616 890.328,3.472 C889.127994,4.24000384 888.240003,5.43999184 887.664,7.072 L875.136,39.76 C873.21599,44.752025 871.800005,49.1199813 870.888,52.864 C869.975995,56.6080187 869.52,59.9199856 869.52,62.8 L869.52,100.816 C869.52,102.640009 869.927996,103.959996 870.744,104.776 C871.560004,105.592004 872.879991,106 874.704,106 L895.872,106 C897.696009,106 899.015996,105.592004 899.832,104.776 C900.648004,103.959996 901.056,102.640009 901.056,100.816 Z M881.76,121.696 C881.375998,122.080002 880.776004,122.415999 879.96,122.704 C879.143996,122.992001 878.256005,123.136 877.296,123.136 L856.128,123.136 C853.823988,123.136 852.144005,122.608005 851.088,121.552 C850.031995,120.495995 849.504,118.816012 849.504,116.512 L849.504,78.496 C849.504,75.5199851 849.959995,72.136019 850.872,68.344 C851.784005,64.551981 853.24799,60.0640259 855.264,54.88 L867.648,22.336 C867.936001,21.4719957 868.295998,20.7280031 868.728,20.104 C869.160002,19.4799969 869.615998,18.9280024 870.096,18.448 L870.24,18.304 L888.672,2.896 C889.440004,2.22399664 890.351995,1.72000168 891.408,1.384 C892.464005,1.04799832 893.663993,0.88 895.008,0.88 L933.744,0.88 C935.952011,0.88 937.751993,1.33599544 939.144,2.248 C940.536007,3.16000456 941.567997,4.5759904 942.24,6.496 L954.768,39.184 C956.78401,44.3680259 958.247995,48.855981 959.16,52.648 C960.072005,56.440019 960.528,59.8239851 960.528,62.8 L960.528,100.816 C960.528,102.064006 960.360002,103.119996 960.024,103.984 C959.687998,104.848004 959.184003,105.567997 958.512,106.144 L939.792,121.696 C939.407998,122.080002 938.808004,122.415999 937.992,122.704 C937.175996,122.992001 936.288005,123.136 935.328,123.136 L913.584,123.136 C911.183988,123.136 909.408006,122.584006 908.256,121.48 C907.103994,120.375994 906.528,118.720011 906.528,116.512 L906.528,97.792 L902.496,97.792 L902.496,100.816 C902.496,102.064006 902.328002,103.119996 901.992,103.984 C901.655998,104.848004 901.152003,105.567997 900.48,106.144 L881.76,121.696 Z M1015.824,123.136 L992.496,123.136 C990.191988,123.136 988.512005,122.608005 987.456,121.552 C986.399995,120.495995 985.872,118.816012 985.872,116.512 L985.872,47.248 L966.144,47.248 C963.839988,47.248 962.160005,46.7200053 961.104,45.664 C960.047995,44.6079947 959.52,42.9280115 959.52,40.624 L959.52,23.2 C959.52,21.9519938 959.687998,20.8960043 960.024,20.032 C960.360002,19.1679957 960.863997,18.4480029 961.536,17.872 L980.112,2.176 C980.592002,1.79199808 981.239996,1.4800012 982.056,1.24 C982.872004,0.9999988 983.759995,0.88 984.72,0.88 L1060.752,0.88 C1063.05601,0.88 1064.73599,1.40799472 1065.792,2.464 C1066.84801,3.52000528 1067.376,5.19998848 1067.376,7.504 L1067.376,24.928 C1067.376,26.1760062 1067.208,27.2319957 1066.872,28.096 C1066.536,28.9600043 1066.032,29.6799971 1065.36,30.256 L1046.64,45.808 C1046.256,46.1920019 1045.656,46.5279986 1044.84,46.816 C1044.024,47.1040014 1043.136,47.248 1042.176,47.248 L1041.024,47.248 L1041.024,100.816 C1041.024,102.064006 1040.856,103.119996 1040.52,103.984 C1040.184,104.848004 1039.68,105.567997 1039.008,106.144 L1020.288,121.696 C1019.904,122.080002 1019.304,122.415999 1018.488,122.704 C1017.672,122.992001 1016.784,123.136 1015.824,123.136 Z M1034.4,106 C1036.22401,106 1037.544,105.592004 1038.36,104.776 C1039.176,103.959996 1039.584,102.640009 1039.584,100.816 L1039.584,30.112 L1060.752,30.112 C1062.57601,30.112 1063.896,29.7040041 1064.712,28.888 C1065.528,28.0719959 1065.936,26.7520091 1065.936,24.928 L1065.936,7.504 C1065.936,5.67999088 1065.528,4.36000408 1064.712,3.544 C1063.896,2.72799592 1062.57601,2.32 1060.752,2.32 L984.72,2.32 C982.895991,2.32 981.576004,2.72799592 980.76,3.544 C979.943996,4.36000408 979.536,5.67999088 979.536,7.504 L979.536,24.928 C979.536,26.7520091 979.943996,28.0719959 980.76,28.888 C981.576004,29.7040041 982.895991,30.112 984.72,30.112 L1005.888,30.112 L1005.888,100.816 C1005.888,102.640009 1006.296,103.959996 1007.112,104.776 C1007.928,105.592004 1009.24799,106 1011.072,106 L1034.4,106 Z M1022.016,93.04 L1022.016,16.72 L992.496,16.72 L992.496,15.28 L1052.976,15.28 L1052.976,16.72 L1023.456,16.72 L1023.456,93.04 L1022.016,93.04 Z M1109.856,93.04 L1109.856,15.28 L1111.296,15.28 L1111.296,53.44 L1166.592,53.44 L1166.592,15.28 L1168.032,15.28 L1168.032,93.04 L1166.592,93.04 L1166.592,54.88 L1111.296,54.88 L1111.296,93.04 L1109.856,93.04 Z M1121.808,106 C1123.63201,106 1124.952,105.592004 1125.768,104.776 C1126.584,103.959996 1126.992,102.640009 1126.992,100.816 L1126.992,68.848 L1151.04,68.848 L1151.04,100.816 C1151.04,102.640009 1151.448,103.959996 1152.264,104.776 C1153.08,105.592004 1154.39999,106 1156.224,106 L1178.544,106 C1180.36801,106 1181.688,105.592004 1182.504,104.776 C1183.32,103.959996 1183.728,102.640009 1183.728,100.816 L1183.728,7.504 C1183.728,5.67999088 1183.32,4.36000408 1182.504,3.544 C1181.688,2.72799592 1180.36801,2.32 1178.544,2.32 L1156.224,2.32 C1154.39999,2.32 1153.08,2.72799592 1152.264,3.544 C1151.448,4.36000408 1151.04,5.67999088 1151.04,7.504 L1151.04,38.752 L1126.992,38.752 L1126.992,7.504 C1126.992,5.67999088 1126.584,4.36000408 1125.768,3.544 C1124.952,2.72799592 1123.63201,2.32 1121.808,2.32 L1099.488,2.32 C1097.66399,2.32 1096.344,2.72799592 1095.528,3.544 C1094.712,4.36000408 1094.304,5.67999088 1094.304,7.504 L1094.304,100.816 C1094.304,102.640009 1094.712,103.959996 1095.528,104.776 C1096.344,105.592004 1097.66399,106 1099.488,106 L1121.808,106 Z M1126.416,106.144 L1107.696,121.696 C1107.312,122.080002 1106.712,122.415999 1105.896,122.704 C1105.08,122.992001 1104.192,123.136 1103.232,123.136 L1080.912,123.136 C1078.60799,123.136 1076.92801,122.608005 1075.872,121.552 C1074.81599,120.495995 1074.288,118.816012 1074.288,116.512 L1074.288,23.2 C1074.288,21.9519938 1074.456,20.8960043 1074.792,20.032 C1075.128,19.1679957 1075.632,18.4480029 1076.304,17.872 L1094.88,2.176 C1095.36,1.79199808 1096.008,1.4800012 1096.824,1.24 C1097.64,0.9999988 1098.528,0.88 1099.488,0.88 L1121.808,0.88 C1124.11201,0.88 1125.79199,1.40799472 1126.848,2.464 C1127.90401,3.52000528 1128.432,5.19998848 1128.432,7.504 L1128.432,37.312 L1131.024,37.312 L1131.024,23.2 C1131.024,21.9519938 1131.192,20.8960043 1131.528,20.032 C1131.864,19.1679957 1132.368,18.4480029 1133.04,17.872 L1151.616,2.176 C1152.096,1.79199808 1152.744,1.4800012 1153.56,1.24 C1154.376,0.9999988 1155.264,0.88 1156.224,0.88 L1178.544,0.88 C1180.84801,0.88 1182.52799,1.40799472 1183.584,2.464 C1184.64001,3.52000528 1185.168,5.19998848 1185.168,7.504 L1185.168,100.816 C1185.168,102.064006 1185,103.119996 1184.664,103.984 C1184.328,104.848004 1183.824,105.567997 1183.152,106.144 L1164.432,121.696 C1164.048,122.080002 1163.448,122.415999 1162.632,122.704 C1161.816,122.992001 1160.928,123.136 1159.968,123.136 L1137.648,123.136 C1135.34399,123.136 1133.66401,122.608005 1132.608,121.552 C1131.55199,120.495995 1131.024,118.816012 1131.024,116.512 L1131.024,85.984 L1128.432,85.984 L1128.432,100.816 C1128.432,102.064006 1128.264,103.119996 1127.928,103.984 C1127.592,104.848004 1127.088,105.567997 1126.416,106.144 Z M1271.424,123.136 L1204.608,123.136 C1202.30399,123.136 1200.62401,122.608005 1199.568,121.552 C1198.51199,120.495995 1197.984,118.816012 1197.984,116.512 L1197.984,23.2 C1197.984,21.9519938 1198.152,20.8960043 1198.488,20.032 C1198.824,19.1679957 1199.328,18.4480029 1200,17.872 L1218.576,2.176 C1219.056,1.79199808 1219.704,1.4800012 1220.52,1.24 C1221.336,0.9999988 1222.224,0.88 1223.184,0.88 L1290,0.88 C1292.30401,0.88 1293.98399,1.40799472 1295.04,2.464 C1296.09601,3.52000528 1296.624,5.19998848 1296.624,7.504 L1296.624,24.352 C1296.624,25.6000062 1296.456,26.6559957 1296.12,27.52 C1295.784,28.3840043 1295.28,29.1039971 1294.608,29.68 L1282.224,39.904 C1283.184,40.3840024 1283.88,41.1039952 1284.312,42.064 C1284.744,43.0240048 1284.96,44.2719923 1284.96,45.808 L1284.96,61.216 C1284.96,62.4640062 1284.792,63.5199957 1284.456,64.384 C1284.12,65.2480043 1283.616,65.9679971 1282.944,66.544 L1270.128,77.344 L1290,77.344 C1292.30401,77.344 1293.98399,77.8719947 1295.04,78.928 C1296.09601,79.9840053 1296.624,81.6639885 1296.624,83.968 L1296.624,100.816 C1296.624,102.064006 1296.456,103.119996 1296.12,103.984 C1295.784,104.848004 1295.28,105.567997 1294.608,106.144 L1275.888,121.696 C1275.504,122.080002 1274.904,122.415999 1274.088,122.704 C1273.272,122.992001 1272.384,123.136 1271.424,123.136 Z M1290,106 C1291.82401,106 1293.144,105.592004 1293.96,104.776 C1294.776,103.959996 1295.184,102.640009 1295.184,100.816 L1295.184,83.968 C1295.184,82.1439909 1294.776,80.8240041 1293.96,80.008 C1293.144,79.1919959 1291.82401,78.784 1290,78.784 L1250.256,78.784 L1250.256,66.4 L1278.336,66.4 C1280.16001,66.4 1281.48,65.9920041 1282.296,65.176 C1283.112,64.3599959 1283.52,63.0400091 1283.52,61.216 L1283.52,45.808 C1283.52,43.9839909 1283.112,42.6640041 1282.296,41.848 C1281.48,41.0319959 1280.16001,40.624 1278.336,40.624 L1250.256,40.624 L1250.256,29.536 L1290,29.536 C1291.82401,29.536 1293.144,29.1280041 1293.96,28.312 C1294.776,27.4959959 1295.184,26.1760091 1295.184,24.352 L1295.184,7.504 C1295.184,5.67999088 1294.776,4.36000408 1293.96,3.544 C1293.144,2.72799592 1291.82401,2.32 1290,2.32 L1223.184,2.32 C1221.35999,2.32 1220.04,2.72799592 1219.224,3.544 C1218.408,4.36000408 1218,5.67999088 1218,7.504 L1218,100.816 C1218,102.640009 1218.408,103.959996 1219.224,104.776 C1220.04,105.592004 1221.35999,106 1223.184,106 L1290,106 Z M1282.224,91.6 L1282.224,93.04 L1233.696,93.04 L1233.696,15.28 L1282.224,15.28 L1282.224,16.72 L1235.136,16.72 L1235.136,52.864 L1270.56,52.864 L1270.56,54.304 L1235.136,54.304 L1235.136,91.6 L1282.224,91.6 Z M1374.96,16.72 L1343.568,16.72 L1343.568,58.336 L1374.96,58.336 C1380.91203,58.336 1384.89599,56.8960144 1386.912,54.016 C1388.92801,51.1359856 1389.936,47.0560264 1389.936,41.776 L1389.936,31.696 C1389.936,27.2799779 1388.71201,23.6800139 1386.264,20.896 C1383.81599,18.1119861 1380.04803,16.72 1374.96,16.72 Z M1359.12,28.24 L1369.92,28.24 C1372.41601,28.24 1374.096,28.8879935 1374.96,30.184 C1375.824,31.4800065 1376.256,33.0879904 1376.256,35.008 L1376.256,39.904 C1376.256,41.8240096 1375.824,43.4319935 1374.96,44.728 C1374.096,46.0240065 1372.41601,46.672 1369.92,46.672 L1359.12,46.672 L1359.12,28.24 Z M1343.568,93.04 L1342.128,93.04 L1342.128,15.28 L1374.96,15.28 C1380.52803,15.28 1384.65599,16.8399844 1387.344,19.96 C1390.03201,23.0800156 1391.376,26.9919765 1391.376,31.696 L1391.376,41.632 C1391.376,46.0480221 1390.80001,49.6719858 1389.648,52.504 C1388.49599,55.3360142 1386.19202,57.2799947 1382.736,58.336 L1384.32,58.336 C1390.17603,58.336 1394.54399,59.6559868 1397.424,62.296 C1400.30401,64.9360132 1401.744,68.751975 1401.744,73.744 L1401.744,93.04 L1400.304,93.04 L1400.304,73.744 C1400.304,69.0399765 1399.00801,65.5120118 1396.416,63.16 C1393.82399,60.8079882 1389.79203,59.632 1384.32,59.632 L1343.568,59.632 L1343.568,93.04 Z M1353.936,106 C1355.76001,106 1357.08,105.592004 1357.896,104.776 C1358.712,103.959996 1359.12,102.640009 1359.12,100.816 L1359.12,72.592 L1379.28,72.592 C1381.29601,72.592 1382.712,73.095995 1383.528,74.104 C1384.344,75.112005 1384.752,76.6719894 1384.752,78.784 L1384.752,100.816 C1384.752,102.640009 1385.16,103.959996 1385.976,104.776 C1386.792,105.592004 1388.11199,106 1389.936,106 L1412.256,106 C1414.08001,106 1415.4,105.592004 1416.216,104.776 C1417.032,103.959996 1417.44,102.640009 1417.44,100.816 L1417.44,70.288 C1417.44,64.2399698 1415.83202,59.3920182 1412.616,55.744 C1409.39998,52.0959818 1405.20003,49.9840029 1400.016,49.408 C1402.99201,48.1599938 1405.07999,46.1200142 1406.28,43.288 C1407.48001,40.4559858 1408.08,37.0240202 1408.08,32.992 L1408.08,26.368 C1408.08,19.2639645 1406.04002,13.4800223 1401.96,9.016 C1397.87998,4.55197768 1390.46405,2.32 1379.712,2.32 L1331.76,2.32 C1329.93599,2.32 1328.616,2.72799592 1327.8,3.544 C1326.984,4.36000408 1326.576,5.67999088 1326.576,7.504 L1326.576,100.816 C1326.576,102.640009 1326.984,103.959996 1327.8,104.776 C1328.616,105.592004 1329.93599,106 1331.76,106 L1353.936,106 Z M1358.544,106.144 L1339.824,121.696 C1339.44,122.080002 1338.84,122.415999 1338.024,122.704 C1337.208,122.992001 1336.32,123.136 1335.36,123.136 L1313.184,123.136 C1310.87999,123.136 1309.20001,122.608005 1308.144,121.552 C1307.08799,120.495995 1306.56,118.816012 1306.56,116.512 L1306.56,23.2 C1306.56,21.9519938 1306.728,20.8960043 1307.064,20.032 C1307.4,19.1679957 1307.904,18.4480029 1308.576,17.872 L1327.152,2.176 C1327.632,1.79199808 1328.28,1.4800012 1329.096,1.24 C1329.912,0.9999988 1330.8,0.88 1331.76,0.88 L1379.712,0.88 C1391.13606,0.88 1398.95998,3.25597624 1403.184,8.008 C1407.40802,12.7600238 1409.52,18.8799626 1409.52,26.368 L1409.52,32.992 C1409.52,36.5440178 1409.088,39.6399868 1408.224,42.28 C1407.36,44.9200132 1405.96801,47.0559918 1404.048,48.688 L1403.904,48.688 C1408.41602,49.9360062 1412.03999,52.4319813 1414.776,56.176 C1417.51201,59.9200187 1418.88,64.6239717 1418.88,70.288 L1418.88,100.816 C1418.88,102.064006 1418.712,103.119996 1418.376,103.984 C1418.04,104.848004 1417.536,105.567997 1416.864,106.144 L1398.144,121.696 C1397.76,122.080002 1397.16,122.415999 1396.344,122.704 C1395.528,122.992001 1394.64,123.136 1393.68,123.136 L1371.36,123.136 C1369.05599,123.136 1367.37601,122.608005 1366.32,121.552 C1365.26399,120.495995 1364.736,118.816012 1364.736,116.512 L1364.736,94.48 C1364.736,92.9439923 1364.448,91.7680041 1363.872,90.952 C1363.296,90.1359959 1362.24001,89.728 1360.704,89.728 L1360.56,89.728 L1360.56,100.816 C1360.56,102.064006 1360.392,103.119996 1360.056,103.984 C1359.72,104.848004 1359.216,105.567997 1358.544,106.144 Z"/>
</svg>
