<svg xmlns="http://www.w3.org/2000/svg" width="46" height="40" viewBox="0 0 46 40" fill="#3e3e3e"><path d="M42.763 20.758a11.936 11.936 0 0 1 2.179 6.883c0 6.625-5.371 11.998-11.998 11.998H16.946C8.11 39.639.948 32.477.948 23.641c0-8.836 7.162-15.998 15.998-15.998 2.002 0 3.914.375 5.68 1.047C24.261 4.008 28.704.643 33.944.643c.755 0 1.491.078 2.207.212a8.04 8.04 0 0 0-.207 1.788 7.998 7.998 0 0 0 7.998 7.999 7.99 7.99 0 0 0 1.789-.208c.133.717.211 1.453.211 2.208 0 3.01-1.135 5.907-3.179 8.116zM4.947 23.641c0 6.627 5.371 11.998 11.998 11.998h15.998a8 8 0 0 0 0-15.998c-1.6 0-3.083.482-4.334 1.291-1.231-5.316-5.973-9.29-11.664-9.29-6.627 0-11.998 5.372-11.998 11.999zM32.155 4.85c-2.9.664-5.175 2.91-5.925 5.775a16.08 16.08 0 0 1 4.68 5.22c.664-.113 1.337-.205 2.033-.205 2.618 0 5.033.85 7.005 2.271a7.993 7.993 0 0 0 1.786-3.482 11.997 11.997 0 0 1-9.579-9.579z"/></svg>