<svg xmlns="http://www.w3.org/2000/svg" width="28" height="10" viewBox="0 0 28 10" fill="#3e3e3e"><path d="M26.998 5h-1v2a3 3 0 0 1-3 2.999h-3.999A2.999 2.999 0 0 1 16 7l-.99-3.959c-.346-.026-.694-.04-1.041-.041-.332 0-.66.019-.98.047L12 7a3 3 0 0 1-3 2.999H5.001a3 3 0 0 1-3-2.999V5h-.999a1 1 0 0 1-1-1V3a.999.999 0 0 1 1-.999h1.184a2.989 2.989 0 0 1 2.815-2H10a2.98 2.98 0 0 1 2.328 1.129 11.459 11.459 0 0 1 1.641-.129c.575 0 1.154.046 1.72.108A2.98 2.98 0 0 1 18 .001h4.999a2.99 2.99 0 0 1 2.816 2h1.184c.553 0 1 .447 1 .999v1a1 1 0 0 1-1.001 1zM8.34 1.66a.75.75 0 0 0-1.061 0L4.098 4.842a.75.75 0 0 0 1.06 1.061L8.34 2.721a.75.75 0 0 0 0-1.061zm13.999 0a.75.75 0 0 0-1.061 0l-3.182 3.182a.75.75 0 1 0 1.061 1.061l3.182-3.182a.75.75 0 0 0 0-1.061z"/></svg>