<svg xmlns="http://www.w3.org/2000/svg" width="44" height="28" viewBox="0 0 44 28" fill="#3e3e3e"><path d="M37.999 16h-3a2 2 0 1 1 0-3.999h3a2 2 0 0 0 0-3.999 2 2 0 1 1 .402-3.959c3.121.211 5.596 2.783 5.596 5.959A5.998 5.998 0 0 1 37.999 16zm-10-3.999H6.002a2 2 0 0 0 0 3.999h21.997a6 6 0 0 1 6 6c0 3.176-2.475 5.748-5.596 5.959A3.985 3.985 0 1 0 27.999 20H6.002a6 6 0 0 1-5.999-5.999c0-3.175 2.475-5.747 5.596-5.959a2.07 2.07 0 0 1 .403-.04h21.997a2 2 0 1 0 0-4 2 2 0 1 1 .404-3.959c3.121.211 5.596 2.783 5.596 5.959a6 6 0 0 1-6 5.999z"/></svg>