<svg xmlns="http://www.w3.org/2000/svg" width="44" height="45" viewBox="0 0 44 45" fill="#3e3e3e"><path d="M35.999 31.941V27.56a7.987 7.987 0 0 0 3.999-6.92A8 8 0 0 0 32 12.641c-1.601 0-3.084.48-4.334 1.291-1.231-5.317-5.974-9.29-11.665-9.29-6.626 0-11.998 5.372-11.998 11.998 0 3.55 1.55 6.728 3.999 8.925v4.916C3.226 27.713.004 22.559.004 16.64.004 7.805 7.166.643 16.001.643c6.004 0 11.229 3.311 13.966 8.203.663-.113 1.336-.205 2.033-.205 6.626 0 11.998 5.372 11.998 11.999 0 5.223-3.342 9.653-7.999 11.301zm-21.997.698c-1.104 0-1-.895-1-1.998v-8c0-1.104-.104-2 1-2s1 .896 1 2v8c0 1.103.104 1.998-1 1.998zm0 4a2 2 0 1 1-.002 4 2 2 0 0 1 .002-4zm7.999 0c-1.104 0-1-.895-1-2v-7.998c0-1.105-.104-2 1-2s1 .895 1 2v7.998c0 1.105.104 2-1 2zm0 4a2 2 0 1 1 .126 3.998 2 2 0 0 1-.126-3.998zm7.999-8c-1.104 0-1-.895-1-1.998v-8c0-1.104-.104-2 1-2s1 .896 1 2v8c0 1.103.104 1.998-1 1.998zm0 4a2 2 0 1 1-.001 3.999A2 2 0 0 1 30 36.64v-.001z"/></svg>