<svg xmlns="http://www.w3.org/2000/svg" width="44" height="45" viewBox="0 0 44 45" fill="#3e3e3e"><path d="M31.999 32.641h-1.062l3.585-4.412c3.181-1.057 5.477-4.053 5.477-7.588A7.998 7.998 0 0 0 32 12.643c-1.601 0-3.083.48-4.333 1.29-1.232-5.316-5.974-9.29-11.665-9.29-6.626 0-11.998 5.372-11.998 12 0 5.446 3.632 10.038 8.604 11.504l-1.349 3.777C4.739 29.903.004 23.826.004 16.642.004 7.807 7.167.643 16.002.643c6.004 0 11.229 3.312 13.965 8.204.664-.114 1.337-.205 2.033-.205 6.627 0 11.999 5.371 11.999 11.998 0 6.627-5.373 12.001-12 12.001zm-11.998-14h9.998l-5.999 10h6.999L18.001 44.639l3.6-11.998h-6.6l5-14z"/></svg>