<svg xmlns="http://www.w3.org/2000/svg" width="45" height="45" viewBox="0 0 45 45" fill="#3e3e3e"><path d="M36.943 31.941V27.56a7.988 7.988 0 0 0 4-6.92 8 8 0 0 0-8-7.999c-1.6 0-3.082.48-4.333 1.291-1.231-5.317-5.974-9.29-11.665-9.29-6.626 0-11.998 5.372-11.998 11.998 0 3.55 1.551 6.728 4 8.925v4.916c-4.777-2.768-8-7.922-8-13.841C.947 7.805 8.11.643 16.945.643c6.004 0 11.229 3.311 13.965 8.203.664-.113 1.338-.205 2.033-.205 6.627 0 11.999 5.372 11.999 11.999 0 5.223-3.341 9.653-7.999 11.301zm-21.997-11.3a2 2 0 0 1 1.999 2v15.998a2 2 0 1 1-3.999 0V22.641a2 2 0 0 1 2-2zm7.999 4a2 2 0 0 1 2 2v15.998a2 2 0 1 1-4 0V26.641a2 2 0 0 1 2-2zm7.999-4a2 2 0 0 1 1.999 2v15.998a2 2 0 1 1-3.999 0V22.641a2 2 0 0 1 2-2z"/></svg>