<svg xmlns="http://www.w3.org/2000/svg" width="45" height="33" viewBox="0 0 45 33" fill="#3e3e3e"><path d="M16.945 32.639C8.11 32.639.947 25.477.947 16.641.947 7.805 8.11.643 16.945.643c6.004 0 11.229 3.312 13.965 8.203.664-.113 1.338-.205 2.033-.205 6.627 0 11.999 5.373 11.999 12 0 6.625-5.372 11.998-11.999 11.998H16.945zm15.998-4a8 8 0 1 0 0-15.998c-1.6 0-3.082.481-4.333 1.291-1.231-5.316-5.974-9.29-11.665-9.29-6.626 0-11.998 5.372-11.998 11.999 0 6.626 5.372 11.998 11.998 11.998h15.998z"/></svg>