<svg xmlns="http://www.w3.org/2000/svg" width="48" height="48" viewBox="0 0 48 48" fill="#3e3e3e"><path d="M45.997 25.999h-3.998a2 2 0 1 1 0-3.999h3.998a2 2 0 0 1 0 3.999zm-7.855-13.311a2 2 0 1 1-2.828-2.828l2.828-2.828A2 2 0 1 1 40.97 9.86l-2.828 2.828zm-14.141 23.31c-6.627 0-12-5.372-12-11.998 0-6.627 5.372-11.999 12-11.999 6.627 0 11.998 5.372 11.998 11.999 0 6.626-5.371 11.998-11.998 11.998zm0-19.997A8 8 0 1 0 23.821 32a8 8 0 0 0 .18-15.999zm0-7.999a2 2 0 0 1-2-2V2.003a2 2 0 1 1 4 0v3.999c0 1.104-.897 2-2 2zM9.86 12.688L7.032 9.86A2 2 0 1 1 9.86 7.032l2.828 2.828a2 2 0 1 1-2.828 2.828zM8.002 24a2 2 0 0 1-2 1.999h-4a2 2 0 1 1 0-3.999h4a2 2 0 0 1 2 2zM9.86 35.312a2 2 0 1 1 2.828 2.828L9.86 40.968a2 2 0 1 1-2.828-2.828l2.828-2.828zm14.141 4.686a2 2 0 0 1 2 1.999v4a2 2 0 1 1-4 0v-4a2 2 0 0 1 2-1.999zm14.141-4.686l2.828 2.828a2 2 0 1 1-2.828 2.828l-2.828-2.828a2 2 0 1 1 2.828-2.828z"/></svg>